<svg xmlns="http://www.w3.org/2000/svg" viewBox="0 0 79.25 17.71"><defs><style>.cls-1{fill:#6cbe45;}</style></defs><title>logo</title><g id="Layer_2" data-name="Layer 2"><g id="Layer_1-2" data-name="Layer 1"><path class="cls-1" d="M12.87,1.9c.3,0,.4.22.3.58a.34.34,0,0,0-.25-.11,1.77,1.77,0,0,0-.29,0l-.2.05h-.54a1,1,0,0,0-.2.07l-.09,0a.11.11,0,0,0,0,0,.15.15,0,0,0,0-.07l-.05,0-.1.06c-.18.06-.35.1-.52.14a.1.1,0,0,1-.09,0h-.07a.11.11,0,0,0-.07,0,.22.22,0,0,0-.06.12h-.11l0,0a.1.1,0,0,0,0,.08l.06,0,.12,0h.1l.09,0h0l0,.05a.22.22,0,0,1-.09.08l-.09,0-.14.06h.35a0,0,0,0,0,0,0l-.27.07a4.57,4.57,0,0,0-.61.16c-.62.2-1.23.42-1.86.64A.42.42,0,0,0,8,4.13a.41.41,0,0,0-.09.1c-.31.43-.61.86-.89,1.29-.06.09-.12.18-.17.27l.74-.19c.66-.14,1.32-.28,2-.4C10,5.12,10.42,5,10.86,5l.59-.1s0,0,0,.06a.09.09,0,0,1-.06,0l-.05,0,0,.13-.06,0-.12.06-.63.1-.34,0-.07,0-.09,0h.38l-.19.13a1.66,1.66,0,0,1-.36.2.88.88,0,0,1-.28,0H9.36l.11,0-.14,0L8.86,6l0,0h.06l.19,0L9,6.17,9.91,6l1.34-.22.58-.09v.06l-.06,0,0,0a.78.78,0,0,0,0,.14l-.06,0L11.57,6l-.65.1-.32.06-.08,0-.08,0h.37l-.19.13a1.77,1.77,0,0,1-.35.19.94.94,0,0,1-.29,0,1,1,0,0,0-.24,0h0l.11,0-.62.2,0,0h0l.06,0,.19,0L9.36,7a.41.41,0,0,1-.14.08l-.31.09c-.51.14-1,.27-1.52.39l-.18,0L7,7.66l0,0-.06,0-.05,0h0l.09,0,0,0,0,0-.35.09a7.37,7.37,0,0,0-1.76.66v.1h.06l.07,0,0,0-.26.3c-.08.09-.17.18-.25.28s0-.09,0-.13l0-.15h0l-.38.65-.38.63h0l0-.06c0-.1.05-.2.08-.3h0l-.15.24-.14.23h.15l-.12.06-.06,0v0h.19l-.11.19a1.45,1.45,0,0,1-.1.18l-.4.1s0,0,0,0h0l.1,0,.08,0,0,0h0l-.06,0,.14,0,.08,0a.25.25,0,0,0,0,.09l-.21.36h.17l-.08.08-.3.32s0,0,0,0v0a0,0,0,0,1,0,0v0l-.13.2-.06.07H2.67l.11-.21A.59.59,0,0,1,2.84,12h0l0,.08-.1.17-.16.24-.21.33a.44.44,0,0,0-.06.16V13h0s0,0,0,0A1.26,1.26,0,0,0,2,13.5a1.28,1.28,0,0,1-.29.55.86.86,0,0,0-.15.35.45.45,0,0,1,0,.11c0,.07,0,.14,0,.23a.45.45,0,0,1,0,.11l.08-.15h0c0,.09-.05.19-.08.28a2.5,2.5,0,0,0-.07.26H1.42a2,2,0,0,1,0-.24h0a.65.65,0,0,1,0,.13,1.82,1.82,0,0,1-.11.3l-.07.19a2.45,2.45,0,0,0-.12.31A3.21,3.21,0,0,0,1,16.3l0,.19-.16,0a3.75,3.75,0,0,1-.39-.09s0,0,0-.06v-.09a4.91,4.91,0,0,1,0-.55L0,15.57s0,0,0-.06v-.09a5.67,5.67,0,0,1,.57-2.26c.41-.85.82-1.71,1.25-2.56q.19-.37.42-.75l.24-.41.2-.36-.45-.51a.1.1,0,0,1,0-.05.15.15,0,0,1,0-.08.31.31,0,0,0,0-.08l.16-.08c-.15-.17-.3-.33-.44-.5l-.05,0a.34.34,0,0,1,0-.08l0-.08L2,7.45l.5-.25,1.32-.52.15,0a.46.46,0,0,0,.14-.07.63.63,0,0,0,.1-.12l.45-.7q-.23.13-.3-.06l-.09-.31a2.58,2.58,0,0,0-.08-.26l0-.11A.16.16,0,0,1,4,4.88l-.09-.3c0-.09,0-.18-.07-.26L3.65,3.9A21.52,21.52,0,0,1,6.73,2.37a.57.57,0,0,0,.19-.13A1.77,1.77,0,0,0,7,2.07a.31.31,0,0,0,0-.1c.1-.14.2-.29.29-.44l.17-.29a.26.26,0,0,1,.16-.1.25.25,0,0,1,.17.08l.08.1.3.31a.33.33,0,0,0,.12.05.2.2,0,0,0,.13,0l.57-.15.55-.16a8.54,8.54,0,0,1,2.2-.27h.65c.31,0,.41.22.3.59a.32.32,0,0,0-.24-.11,1.6,1.6,0,0,0-.29,0l-.2,0h-.27l-.28,0-.19.06-.1,0V1.67l-.06,0L11,1.76a4.44,4.44,0,0,1-.52.15h-.16a.07.07,0,0,0-.06,0,.27.27,0,0,0-.06.11h-.05l-.09,0s0,0,0,.07a8.89,8.89,0,0,1,2.14-.24ZM1.9,12l0,.06,0-.05Zm0,0h0Zm1-1.76L3,10l-.08,0-.17,0v.05l.13,0S2.87,10.2,2.87,10.21Zm-.14.07h0l.07,0,0,0a.05.05,0,0,1,0,0H2.81Zm.43-.67h0l0-.06,0,0s0,0,0,0l0,0Zm.15-.21.2-.35-.07,0h0l-.13.21-.12.19h.09l0,0Z"/><path class="cls-1" d="M18.7,9.12l.2.05.3.08,0,.05v0a8.71,8.71,0,0,1-1.6.18,9.81,9.81,0,0,0-1.32.12c0,.1-.07.2-.11.3l-.18.48H15.9l0-.29h0a.42.42,0,0,1,0,.1.37.37,0,0,0-.07.19,1.93,1.93,0,0,0,.06.36l0,.16s0,0,0,.05l0,0s0,0,0,0,0,0-.08.05,0,0,0,0a.3.3,0,0,0,0,.1l0,.1-.08-.08v.05a.14.14,0,0,0,0,.06.08.08,0,0,0,0,0l0,0,.06,0,.06,0-.07.38a7.62,7.62,0,0,0-.14.94,2.72,2.72,0,0,0,0,.64l0,.26a1.5,1.5,0,0,0,0,.29,4,4,0,0,1,.05.5.49.49,0,0,1-.05.18.13.13,0,0,0,0,.08h-.11l-.1,0a.08.08,0,0,1-.07,0,2,2,0,0,1-.28-.52c0-.08-.05-.17-.08-.25l0,0a1.84,1.84,0,0,1-.27-.52,5.3,5.3,0,0,1-.31-2.14c0-.46.11-.93.2-1.4l-1.7.29-.21.09-.11.05h0l-.06,0a0,0,0,0,0-.05,0,.3.3,0,0,0-.12.13.64.64,0,0,0-.06.18.17.17,0,0,0,0,.14l-.09.07-.19.16a.36.36,0,0,0-.08.15.42.42,0,0,1,0,.12.2.2,0,0,1-.11.09.33.33,0,0,1,0,.24,1.57,1.57,0,0,1-.17.21l-.12.14a1.7,1.7,0,0,0,0-.22s0-.07,0-.1l-.06.08a1.44,1.44,0,0,0-.18.25.5.5,0,0,0,0,.3l0,0,.06,0,.08,0-.12.22-.26.45-.1-.1-.08-.07-.12.19-.34.54a1.08,1.08,0,0,0-.08.19.29.29,0,0,1,0,.09h0l-.12.06a.14.14,0,0,1,0,.15l-.12.12L9.84,14a.15.15,0,0,0,0,.11v0c0-.08,0-.18,0-.3a1.59,1.59,0,0,1-.08.18.47.47,0,0,0-.06.15.29.29,0,0,0,0,.16s0,.08,0,.14a.94.94,0,0,1-.12.18.35.35,0,0,1-.05.08l-.28.39L9,15.24H9l-.28.36-.2.27c-.31-.08-.4-.27-.28-.58a.19.19,0,0,0,0-.08l.27-.65c-.1.12-.2.25-.29.38l-.11.13c-.3-.08-.39-.27-.28-.57l0-.1a11.07,11.07,0,0,1,.65-1.45c.41-.68.84-1.37,1.27-2l-.27.16a1.16,1.16,0,0,1-.37.21l-.37.09-.2,0a.4.4,0,0,1-.15,0,.18.18,0,0,1-.1-.09,5.39,5.39,0,0,1-.22-.68l-.1,0A.13.13,0,0,1,8,10.48a6.09,6.09,0,0,1-.25-.83.21.21,0,0,1,0-.2A.29.29,0,0,1,8,9.33l.58-.17L9.07,9l1.26-.38.43-.13.16-.06a1.71,1.71,0,0,1,.3-.09.5.5,0,0,0,.29-.14A1.12,1.12,0,0,0,11.7,8l0,0c.31-.48.63-1,1-1.42.06-.07.11-.15.16-.22.47-.68.95-1.35,1.44-2S15.41,2.78,16,2L16,2a1,1,0,0,1,.19-.15l.1-.08v0c0,.06,0,.13,0,.21l.19-.15,0-.05c.08.05.14.11.21.16l.42.36a1.26,1.26,0,0,1,.42.83,1.48,1.48,0,0,1,.29,1.57c-.06.21-.13.42-.18.64l-.3,1c-.08.28-.17.55-.27.82L17,7.58v0h.07l.64,0v0l-.48.07v0h.67s0,0,.07.1a.12.12,0,0,0,.08,0l.16,0,.16,0h-.16L18,8l.17.09.08,0,0,0h0a.62.62,0,0,1,.08.12l.06.09.2.05.29.08a.06.06,0,0,0,0,0v0a3.28,3.28,0,0,1-.41.08.1.1,0,0,0,.08.06l.15,0,.15,0h-.37l.16.1a.2.2,0,0,1,.08,0h-.07l.05.06ZM15.42,6.71c.05-.2.11-.41.17-.61l-.29.39-.82,1.18a1.77,1.77,0,0,0-.12.17l.4,0L15,7.73a.24.24,0,0,0,.09-.06l0,0-.08-.09h0c.06,0,.11-.08.17-.2S15.33,7,15.42,6.71Z"/><path class="cls-1" d="M21.62,14.34a.85.85,0,0,1-.14.21.86.86,0,0,1-.07.1l-.11-.06a.53.53,0,0,1-.25-.15.29.29,0,0,1,0-.17.65.65,0,0,1,0-.2c.07-.21.15-.42.23-.63s.21-.53.3-.8a3,3,0,0,0,.09-.73v-.7c0-.35,0-.71,0-1.07s.06-.66.1-1l-.15.15c-.11.11-.22.22-.33.35a.08.08,0,0,0,0,0l0-.11,0-.06h-.06l-.76,1.33-.21.4s0,0,0,0a1.21,1.21,0,0,1,0-.14.29.29,0,0,1-.12.13.58.58,0,0,0-.11.13s0,.09,0,.14v0h0v0a2.23,2.23,0,0,0-.55.78,3.53,3.53,0,0,1-.28.5l-.14.19a3.79,3.79,0,0,0-.25.35,3,3,0,0,0-.16.31l-.12.25-.42.72-.58,1a1.56,1.56,0,0,1-.25.37s0,.05,0,.05a.35.35,0,0,1-.23.09.17.17,0,0,1-.15-.15.66.66,0,0,1,0-.34,2.74,2.74,0,0,1-.29-.49.6.6,0,0,1-.07-.39,11.28,11.28,0,0,1,1.17-2.43c1-1.65,2-3.29,3-4.92.29-.45.58-.9.88-1.34s.41-.61.61-.91a.85.85,0,0,0,.11-.35,0,0,0,0,1,0,0s0-.08,0-.12a.2.2,0,0,1,0-.11v0l.06-.18a.27.27,0,0,1,.08-.14A.9.9,0,0,1,22.71,4l.12,0,0,0V4L23,3.89a3.21,3.21,0,0,0,.19-.31,1.34,1.34,0,0,1,.16-.23.33.33,0,0,1,.22-.11.33.33,0,0,1,.16.07.39.39,0,0,1,.1.16.13.13,0,0,0,0,.06,4.54,4.54,0,0,1,.09.51h0a.23.23,0,0,1,.16.07.3.3,0,0,1,.09.15.13.13,0,0,1,0,.06,4,4,0,0,1,.11,1.1,1,1,0,0,1-.14.36,3.27,3.27,0,0,1-.25.36,1.81,1.81,0,0,0-.27.51,3,3,0,0,0-.13.52c-.05.29-.12.59-.2.89s-.14.57-.2.85c-.1.51-.18,1-.24,1.54l.19-.29,1.59-2.4L26.2,5.45,26.48,5l.7-1c.4-.58.8-1.16,1.19-1.75l0,0a2,2,0,0,1,.55-.61.43.43,0,0,1,.2-.08c.06,0,.09,0,.11.12s0,.26,0,.39,0,.25,0,.36a.43.43,0,0,1,.2-.08s.09,0,.1.13,0,.25,0,.38,0,.36.07.53a.8.8,0,0,1-.09.53,2.56,2.56,0,0,1-.33.48l-.2.28c-.35.51-.7,1-1.07,1.52l-.28.4c-.35.5-.71,1-1.1,1.48,0-.09.1-.17.14-.26l0,0h0L25.83,9l-1.21,1.61h0a0,0,0,0,0,0,0v0l-.18.09-.07.14-.14.27c-.3.48-.6,1-.91,1.45-.07.11-.14.22-.22.33a5.85,5.85,0,0,0-.38.63c-.17.32-.32.64-.47,1l-.27.58a1.64,1.64,0,0,1-.14.22.36.36,0,0,0-.07.1.38.38,0,0,0-.13-.06.6.6,0,0,1-.24-.16.29.29,0,0,1,0-.17.45.45,0,0,1,0-.2C21.49,14.69,21.56,14.52,21.62,14.34Zm-4.44.34s0,0,0,0l0,0a.56.56,0,0,0,0,.12Zm2.52-4.31a.15.15,0,0,0-.07.11l0-.06Z"/><path class="cls-1" d="M35.06,5a.9.9,0,0,1-.09.7,8.17,8.17,0,0,1-1.22,1.86c-.1.11-.17.17-.2.16s-.06-.06-.09-.17a2.89,2.89,0,0,0-.3-.61.42.42,0,0,1-.08-.17h0a2.19,2.19,0,0,0-.31-.61.32.32,0,0,1-.06-.25.78.78,0,0,1,.2-.31c.14-.17.27-.35.41-.53a5.24,5.24,0,0,0-1,.68,18.78,18.78,0,0,0-1.48,1.35c-.25.27-.51.55-.75.84s-.43.49-.65.73a.92.92,0,0,0-.13.19.56.56,0,0,1-.1.15,1.62,1.62,0,0,1-.18.2l-.2.22a.66.66,0,0,0-.09.19l-.05.09a.52.52,0,0,0-.38.53.57.57,0,0,1-.14.28l-.08.14a2.19,2.19,0,0,1-.23.33l.09-.24,0-.07h0l-.14.2-.23.33.25-.13-.11.24c-.07.15-.15.31-.22.48a5,5,0,0,0-.38,1.27h.07a1.68,1.68,0,0,0,.7-.07,3.62,3.62,0,0,0,.72-.29,8.92,8.92,0,0,0,2.69-2h0l0,0a.25.25,0,0,0,.08-.05l-.05.09-.06.13-.08.1-.06.06.09-.05.08-.08a.91.91,0,0,1,.13-.1s.09,0,.15,0l-.8,1,.35-.23.26-.19a1.07,1.07,0,0,1-.27.36,1.26,1.26,0,0,0-.2.2.49.49,0,0,0-.1.26l.15-.1h0s0,0,0,0l-.13.12-.11.11c.3-.27.59-.55.88-.85h0l0,0,.08,0-.05.09-.06.12-.08.1-.06.06a.18.18,0,0,0,.1,0l.08-.09a.41.41,0,0,1,.13-.1s.09,0,.14.05c-.26.32-.53.64-.79,1l.19-.13.42-.29a1.17,1.17,0,0,1-.28.35,1,1,0,0,0-.2.21.46.46,0,0,0-.1.25l.15-.09h0l0,0L31.3,13l-.36.34-.07,0a.27.27,0,0,0-.11.05h.13l-.14.12a1.1,1.1,0,0,1-.56.3.37.37,0,0,0-.16.05.56.56,0,0,0-.15.1,1.74,1.74,0,0,1-.74.44l-.29.11.07,0,.13,0a1.69,1.69,0,0,1-1.18.07,4.09,4.09,0,0,1-.9-.55,2.46,2.46,0,0,1-.63-.82.9.9,0,0,1-.09-.32A2.27,2.27,0,0,1,26,12.5,1.92,1.92,0,0,1,26,11.15a12,12,0,0,1,.54-1.36c.13-.25.27-.5.42-.74l.21-.34h0v0l-.06,0,0,0,.17-.29v0a.06.06,0,0,1,0,0,24.71,24.71,0,0,1,1.9-2.45h0l-.07.09-.25.34,0,0,.22-.23.51-.55.05-.06.39-.41a.29.29,0,0,1,.14-.08.18.18,0,0,0,.07,0,.43.43,0,0,1,0,.11s0,.08-.05.13h.05L30.67,5,31,4.68l.12-.09,0,0,.05-.05q.27-.21.54-.45v0a0,0,0,0,0,0,0l-.07,0-.15.08-.13.07,0,0s0,0,0,0L32,3.59l-.06,0-.08,0h0a4.52,4.52,0,0,1,1-.64,1.91,1.91,0,0,1,1-.15.67.67,0,0,1,.53.44c.06.16.11.32.17.49a.71.71,0,0,1,.21.3c.08.24.17.47.25.71A1.55,1.55,0,0,0,35.06,5ZM27.13,13.7a.24.24,0,0,0,.15.13.71.71,0,0,0,.21,0A3,3,0,0,1,27.13,13.7Zm1.53-6.93-.46.62a0,0,0,0,1,0,0h0l.48-.61,0,0Zm.84,6.44-.07.08.36-.22-.15,0Zm.32-7.4h-.14s0,.07,0,.11,0,0,0,.09l.07-.07.13-.13L30,5.66l.06-.07C30,5.51,29.87,5.58,29.82,5.81Zm.47.79.14-.15.05-.07a.16.16,0,0,0-.09,0l-.16.18,0,.07h-.05s0,0,0,0l-.06.06h0s0,.06,0,.1a.46.46,0,0,0,.07-.07Zm.19,6a.24.24,0,0,0-.1.05h0l0,0Zm1.06-7.22.21-.18.37-.31a0,0,0,0,0,0,0s0,0,0,0L31.9,5c-.42.36-.84.73-1.24,1.13a.36.36,0,0,0,0,.09h0L31,5.86c.12-.13.24-.26.37-.38l.11-.09Z"/><path class="cls-1" d="M44.66,1.52a.33.33,0,0,1,0,.18,2,2,0,0,1-.12.21l-.68.9c-.24.31-.47.62-.7.94-.62.84-1.24,1.7-1.84,2.56-.48.67-.95,1.35-1.41,2a.33.33,0,0,0-.07.13s0,.09,0,.12a4.91,4.91,0,0,0,.28.5l.1.18,0,0,0,0-.34-.11-.42-.13a7.76,7.76,0,0,0-.57.84c-.21.32-.43.64-.66.94a.18.18,0,0,1-.07-.05c0-.11.08-.23.13-.35l.06-.17s0,0,0,0L38,10.6c-.11.19-.24.38-.37.59l0-.06a1.12,1.12,0,0,0-.05-.13.72.72,0,0,1-.07.11.66.66,0,0,0-.06.12l.12.06,0,0,0,.06-.09.12-.18.2a.67.67,0,0,1-.11.14c.06-.17.11-.31.14-.41h-.05c-.09.14-.17.28-.25.42s-.13.22-.21.34h0l.21,0a.52.52,0,0,0-.07.15,2.1,2.1,0,0,0-.15.3l0,0,.07-.05.08-.07c-.09.14-.16.28-.23.39l0-.08,0-.1,0,0a4.69,4.69,0,0,1-.44.79c-.13.2-.25.4-.36.61a2.47,2.47,0,0,0-.21.65l.07-.06.07-.07v0l0,.09s0,.07,0,.07a.67.67,0,0,0-.48.41l0-.11a.34.34,0,0,1,0-.1h-.07l-.2.44-.15.35h0l0,0,.06-.07a1.79,1.79,0,0,1-.36.68l-.16.24h0l.13-.08-.08.12-.14.23c-.14.18-.29.36-.45.53l-.12.11-.12.1s-.07,0-.09,0l-.1,0-.12,0a.11.11,0,0,1-.08-.07.34.34,0,0,1,0-.17,3.52,3.52,0,0,0,.15-.42l.13-.37,0,0,0,0s0,.05-.05.09a.75.75,0,0,0,0,.16c0,.07,0,.13-.07.19a.36.36,0,0,1-.06.11s0,0-.06,0a2.31,2.31,0,0,1,0-.28.12.12,0,0,0-.05-.05l-.09,0-.1,0a.13.13,0,0,1-.07-.06.19.19,0,0,1,0-.14l.14-.42c.12-.37.26-.73.41-1.1a21.8,21.8,0,0,1,1.68-3.06c.56-.89,1.13-1.77,1.7-2.66.23-.34.45-.69.68-1a3.51,3.51,0,0,1-.36-.29,4.5,4.5,0,0,1-1.17-1.75,3.87,3.87,0,0,1-.53-1.3,1.48,1.48,0,0,1,0-.21,1.72,1.72,0,0,1,.07-.21l0-.08h.19a.1.1,0,0,1,.07,0,6.41,6.41,0,0,1,.58.45.67.67,0,0,1,.19.28,3.37,3.37,0,0,1,.1.34.43.43,0,0,0,0,.11l0,0,0,0a.77.77,0,0,1,.19.28,1.89,1.89,0,0,1,.09.34c0,.06,0,.11,0,.16a2.62,2.62,0,0,0,1.06.82c.14-.18.27-.37.4-.55l.9-1.28.35-.49A16.33,16.33,0,0,1,41,3.42a4.15,4.15,0,0,1,.27-.32c.24-.27.47-.55.7-.83.52-.65,1-1.3,1.53-2,.15-.2.28-.24.41-.14a1.9,1.9,0,0,1,.4.56.65.65,0,0,1,.09.19c0,.1.09.22.14.33A2.4,2.4,0,0,1,44.66,1.52ZM37.05,9.88l-1,1.59.07,0,.35-.56.65-1h0Zm-.57,2.4c.12-.17.23-.35.35-.53l.66-1.05h0l0,0c-.33.53-.67,1.06-1,1.59h.06ZM36.63,11c.09-.13.18-.26.26-.4h0l-.21.35Zm1.9-1.17a.47.47,0,0,1,.16,0,.34.34,0,0,0,.14-.05.24.24,0,0,0,.11-.13.41.41,0,0,1-.09-.1l-.1-.09,0,0a.61.61,0,0,0-.15.17s0,0,0,0l0,.07,0,0Z"/><path class="cls-1" d="M61.63.82a0,0,0,0,1,0,0s0,0-.06,0L61.41,1l-.28.11-.42.13-.61.05h-.16v0l-.11,0-.15,0,0,0,0,0a.55.55,0,0,0,.25,0l0,0-.1.05-.11,0h0l.06.4-.08,0-.13,0s0,0,0,.06l.3,0,.33,0V2h0l-.07,0,0,0h0s0,0,0,0l.23,0h0v0l-.27.06s0,0,0,0l.09.06-.73.09h0s0,0,0,0h.5a.26.26,0,0,0,0,.11l-1.55.24-2.55.45a1,1,0,0,1-.29.08h-.23l-1,.19,0,.07c-.27.42-.54.84-.82,1.25s-.52.76-.77,1.14c-.12.2-.24.4-.37.59-.43.67-.85,1.35-1.24,2.05l0,.07a.39.39,0,0,1-.1.16.24.24,0,0,1-.17.09,0,0,0,0,1,0,0l0,0s0,0,0,0a0,0,0,0,0,0,0l.05,0s0,0,0,0a.14.14,0,0,1,0,.06h0l-.32.55-.11.19,0,0,0,0a.08.08,0,0,0,0,0,.06.06,0,0,0-.06,0,3.11,3.11,0,0,1-.39.65q-.12.15-.24.33v.06a0,0,0,0,1,0,0s0,.06,0,.07h-.13l0,0v0a.25.25,0,0,1,0,.13.44.44,0,0,1-.08.11,1.1,1.1,0,0,0-.09.14l0,0a.11.11,0,0,1,0,.08s0,0-.09,0a0,0,0,0,1,0,0,.11.11,0,0,1,0,0s0,0,0-.06,0,0,0-.06a.73.73,0,0,0-.16.22.75.75,0,0,1-.07.12l.1-.06.07,0s0,0,.05,0a.12.12,0,0,1,0,.1s-.06,0-.12,0a.2.2,0,0,1,0,.13.26.26,0,0,1-.07.11l0,.09a2.4,2.4,0,0,1-.41.59A1.54,1.54,0,0,0,48,13a2.68,2.68,0,0,1-.18.33l-.12.18a1.14,1.14,0,0,1-.15.23,2.12,2.12,0,0,0-.29.38,2.28,2.28,0,0,1-.3.38,2.76,2.76,0,0,0-.59,1l0,.07a.9.9,0,0,1-.17.26.34.34,0,0,1-.08.09.66.66,0,0,0-.12.17.23.23,0,0,0,0,.21s0,0,0,.1l-.06.16-.09.17a4.47,4.47,0,0,0-.31.72.28.28,0,0,1,0,.13.18.18,0,0,1-.12.08.43.43,0,0,1-.17-.07,1.54,1.54,0,0,1-.19-.17.47.47,0,0,1-.09-.17,1.29,1.29,0,0,1,0-.39.62.62,0,0,1-.17-.1l-.16-.15a.42.42,0,0,1-.09-.15,1.55,1.55,0,0,1,.08-.56,2.53,2.53,0,0,0,.12-.36,12.23,12.23,0,0,1,.61-1.51l.12-.22c.36-.75.77-1.49,1.2-2.2.24-.39.48-.77.71-1.16s.4-.66.61-1c.3-.5.6-1,.89-1.49s.7-1.17,1.07-1.75l.75-1.19c.23-.37.45-.73.68-1.08-.34,0-.65.11-.94.17l-1.76.32c-.2,0-.27-.13-.21-.35l-.61.1a2.47,2.47,0,0,1-.39,0h-.19c-.13,0-.22,0-.26-.11a.46.46,0,0,1-.06-.29,1.24,1.24,0,0,0,0-.39h0c-.14,0-.24,0-.28-.12a.5.5,0,0,1-.05-.28,1.6,1.6,0,0,0-.16-.79.39.39,0,0,1,0-.18.39.39,0,0,1,.09-.2.32.32,0,0,1,.13-.1.25.25,0,0,1,.12,0l.06,0a1.45,1.45,0,0,0,.36,0h.07l1-.11c.88-.09,1.77-.2,2.65-.32.36,0,.73-.09,1.09-.12L53,1.16C53.53,1,54,1,54.44.88s1-.17,1.45-.29c.66-.15,1.29-.26,1.9-.34l.6-.06.56,0,.36,0,.23,0,.38,0,.21,0a.55.55,0,0,1,.18,0,5.85,5.85,0,0,1,.94,0s0,0,0,0l-.07,0L61,.16a2,2,0,0,1-.27.1L60.33.4,58.87.52,57.46.64s0,0,0,.06,0,0,0,0l.54,0,.55,0-.07.07-.09.08.38-.05A.52.52,0,0,1,59,.62a.71.71,0,0,1,.25,0,.75.75,0,0,0,.36,0h0a.53.53,0,0,1-.1.06l-.12,0h0a.57.57,0,0,1,0,.18s0,.05,0,.08l.31,0,.23,0,.38,0a.48.48,0,0,0,.2,0l.2,0A5.78,5.78,0,0,1,61.63.82Zm-2.5.74,0,0h-.13s0,0,0,0h.09Z"/><path class="cls-1" d="M62.38,4.4a.17.17,0,0,1,0,.07s0,0,0,.08,0,0,0,.07h-.06a.21.21,0,0,1-.14,0,1.17,1.17,0,0,0-1.06,0,2,2,0,0,1,.11.26c0,.06.05.11.07.16a.43.43,0,0,1,.05.12h0a1.88,1.88,0,0,1,.25.49l.07.16.06.12a1.45,1.45,0,0,1,.1.41,1.23,1.23,0,0,1-.1.5A9.74,9.74,0,0,1,61.21,8l0,.06,0,0v0l0,0h0l0,0c-.06.13-.13.26-.2.39s-.21.43-.32.65a16.81,16.81,0,0,1-1.4,2.28,14.9,14.9,0,0,1-1.64,1.83l-.94.9a1.59,1.59,0,0,1-.33.25,2.54,2.54,0,0,0-.34.23,1.49,1.49,0,0,1-.72.34.69.69,0,0,1-.36,0l-.43-.25-.36-.2a1.11,1.11,0,0,1-.62-1A1.43,1.43,0,0,1,53.08,12a7.52,7.52,0,0,1,.65-1.78l.08-.17c.11-.24.23-.48.35-.72s.26-.44.4-.66l1-1.51c.13-.2.28-.39.43-.58a.93.93,0,0,1,.18-.16.65.65,0,0,0,.18-.15c.16-.18.33-.37.49-.57l.56-.63a1.55,1.55,0,0,1,.27-.24l.17-.15c.09-.07.16-.15.24-.22l.23-.22c.17-.16.34-.3.51-.44l.27-.23a5.75,5.75,0,0,1,.68-.54,1.72,1.72,0,0,1,1.74-.28.17.17,0,0,1,.06.06l0,.08a.08.08,0,0,1,0,0l0,0c.1.19.2.38.29.58,0,0,0,0,0,0l0,.07s0,0,0,0l0,0ZM60.72,7.24s0,0,0,0l-.21.4-.32.65a18.14,18.14,0,0,1-1.4,2.28,15.59,15.59,0,0,1-1.63,1.82l-.94.9a1.77,1.77,0,0,1-.35.26,2.26,2.26,0,0,0-.34.23,1.51,1.51,0,0,1-.71.34.74.74,0,0,1-.34,0c.06.12.23.14.51.07A1.35,1.35,0,0,0,55.4,14a7.59,7.59,0,0,0,2.1-1.7c.5-.56,1-1.15,1.42-1.75a10.39,10.39,0,0,0,.92-1.48,17.76,17.76,0,0,0,.85-1.76.14.14,0,0,0,0-.06Zm-5.81,4.87a4.7,4.7,0,0,0-.44,1.29l.13,0a1.56,1.56,0,0,0,.41-.15,7.7,7.7,0,0,0,2.11-1.71c.5-.56,1-1.14,1.42-1.74a14.14,14.14,0,0,0,.93-1.48c.31-.58.59-1.17.84-1.76.07-.16.12-.31.18-.47a5.75,5.75,0,0,0-2,1.12.57.57,0,0,1-.13.08l-.06,0a0,0,0,0,1,0,0l0,0,.07-.08s0,0,0,0h0l-.06,0a.71.71,0,0,0-.14.1A6.14,6.14,0,0,0,57.1,8.4l-.29.39a10.93,10.93,0,0,0-.93,1.43,2,2,0,0,1-.17.27,1.54,1.54,0,0,0-.19.28c-.11.22-.22.45-.32.68S55,11.88,54.91,12.11Z"/><path class="cls-1" d="M72.25,5a1.93,1.93,0,0,1-.31,1.15,1.31,1.31,0,0,0-.15.37,1,1,0,0,1-.12.32,7.74,7.74,0,0,1-.56.89c-.24.35-.5.7-.77,1l-.09.11a.13.13,0,0,1-.07.06l-.1.05V9l0,0,0,0-.13.17,0,.07H70l0,0s0,0-.06.05l-.09,0-.09.05s0,0,0,0a.61.61,0,0,1-.14.29l-.24.21h0l-.55.37-.24.16.09,0s0,0,0,0l0,0h0l-.08,0a3.15,3.15,0,0,0-.86.51,2.71,2.71,0,0,1-.35.24.18.18,0,0,1-.07.05c-.22.15-.45.29-.67.42a4.25,4.25,0,0,0-.46.27,4.48,4.48,0,0,1-.68.37,7,7,0,0,0-.88.48l-.56.32c-.26.13-.53.25-.8.36l-.34.15-.46.2-.46.2,0,0,0,0h0a.36.36,0,0,0-.28.11,1,1,0,0,0-.17.24l-.09.14a.89.89,0,0,0-.08.17A.46.46,0,0,1,61,15a1.06,1.06,0,0,0-.3.53,1.09,1.09,0,0,1-.15.33s-.06,0-.12-.07a1,1,0,0,1-.21-.29,1.24,1.24,0,0,1-.11-.45.79.79,0,0,1-.27-.36,1.12,1.12,0,0,1-.1-.67l-.21-.12c-.2-.13-.24-.35-.13-.64l-.25-.15a.37.37,0,0,1-.19-.34.87.87,0,0,1,.15-.47A3.18,3.18,0,0,0,59.3,12s.06-.11.11-.18a1.64,1.64,0,0,0,0,.23,3.41,3.41,0,0,1,0,.42.26.26,0,0,0,.23.28.91.91,0,0,1,.07-.14l0,.13c.21,0,.41-.08.62-.14h0a.09.09,0,0,0,.07,0l.06,0c.25-.44.51-.87.77-1.29l.81-1.36c.23-.36.45-.73.68-1.1l.45-.74c.2-.31.39-.63.58-1a.43.43,0,0,0,0,0,1.42,1.42,0,0,0-.05-.22c0-.1,0-.2,0-.29a.49.49,0,0,1-.18-.08.3.3,0,0,1-.1-.21A1.74,1.74,0,0,0,63.41,6a1,1,0,0,1,0-.3.9.9,0,0,1,0-.35.46.46,0,0,0,0-.2.63.63,0,0,1,0-.19.38.38,0,0,1,.13-.19l0,0c.41-.37.84-.72,1.27-1.07a10.74,10.74,0,0,1,.94-.61c.15-.09.31-.17.47-.25s.35-.17.52-.27a.6.6,0,0,0,.13-.14.94.94,0,0,0,.12-.18l0,0c.2-.34.42-.41.64-.21a.4.4,0,0,0,.49,0,2.45,2.45,0,0,1,1-.29,5.41,5.41,0,0,1,.9,0A1.52,1.52,0,0,1,71.7,3a0,0,0,0,0,0,0V3a1.56,1.56,0,0,1,.37.75A5.46,5.46,0,0,1,72.25,5Zm-9.4,5.18-.18.13,0,0h.07A.83.83,0,0,1,62.85,10.17Zm.29,1.42a.3.3,0,0,0,0-.1.41.41,0,0,0,0-.09l0,0a.19.19,0,0,0,.14-.07.26.26,0,0,0,.05-.12l0-.08a.56.56,0,0,0,.08-.27l0-.13-.3.22-.24.18h0l.15,0L63.4,11c-.17.25-.33.48-.46.69l.12-.06,0,0Zm0-2.07h0v0h.06l0-.08.08-.13Zm.92.54,0,.06a.8.8,0,0,1,0,.15,2,2,0,0,1-.1.26.56.56,0,0,0,0,.12l0,0-.11.12c-.08.13-.16.26-.23.39l-.18.29c.75-.39,1.49-.81,2.23-1.24a17,17,0,0,0,2.62-2A9.45,9.45,0,0,0,70,6.08a8.11,8.11,0,0,0,.88-1.87c0-.13.06-.24.08-.34a2.35,2.35,0,0,0-.42-.06,6.17,6.17,0,0,0-.86,0,4.13,4.13,0,0,0-1.48.37l-.14.08a.68.68,0,0,0-.12.12c-.31.44-.61.87-.89,1.31s-.48.75-.71,1.14c-.13.22-.27.44-.41.65l-.47.76-.27.41-.13.21L65,9h0l0,0,.18-.38h0l-.57,1-.36.64a.35.35,0,0,0,0-.12V10l-.09,0Zm0,0,0-.05.08-.14s0,0,0,0l0,0,0,0h0l-.59.5v0h.17a.52.52,0,0,1,0,.11,1.15,1.15,0,0,1,0,.16l.07-.08a.23.23,0,0,0,.07-.08.32.32,0,0,1,.24-.31,0,0,0,0,0,0,0,.07.07,0,0,0,0-.05Zm-.19,2.12L65,11.6a5.73,5.73,0,0,0-.84.45ZM68.73,2a.13.13,0,0,0,0,.06h0l1-.11a.11.11,0,0,0,0-.05,0,0,0,0,0,0,0l-.22,0Z"/><path class="cls-1" d="M79.23,4.4a.1.1,0,0,1,0,.07s0,0,0,.08a.17.17,0,0,1,0,.07h-.06a.22.22,0,0,1-.14,0,1.15,1.15,0,0,0-1,0,2,2,0,0,1,.11.26.77.77,0,0,0,.07.16l0,.12h0a1.88,1.88,0,0,1,.25.49,1.26,1.26,0,0,0,.07.16.61.61,0,0,1,0,.12,1,1,0,0,1,.1.41,1.21,1.21,0,0,1-.09.5A9.81,9.81,0,0,1,78.06,8a.09.09,0,0,1,0,.06l0,0,0,0V8h0l0,0c-.06.13-.13.26-.2.39s-.21.43-.33.65A15.79,15.79,0,0,1,76,11.38a15.77,15.77,0,0,1-1.64,1.83l-.94.9a1.91,1.91,0,0,1-.33.25,3.5,3.5,0,0,0-.35.23,1.41,1.41,0,0,1-.72.34.72.72,0,0,1-.36,0l-.43-.25a3.07,3.07,0,0,0-.36-.2,1.12,1.12,0,0,1-.61-1A1.45,1.45,0,0,1,69.93,12a8.52,8.52,0,0,1,.65-1.78s0-.11.08-.17c.12-.24.23-.48.36-.72s.25-.44.4-.66l1-1.51a5.79,5.79,0,0,1,.43-.58.93.93,0,0,1,.18-.16.84.84,0,0,0,.18-.15l.49-.57.55-.63a1.61,1.61,0,0,1,.28-.24l.17-.15L75,4.5l.23-.22c.17-.16.34-.3.51-.44L76,3.61a5.75,5.75,0,0,1,.68-.54,1.71,1.71,0,0,1,1.74-.28.1.1,0,0,1,0,.06.2.2,0,0,1,0,.08l0,0a.09.09,0,0,0,0,0c.1.19.2.38.29.58v0l0,.07s0,0,0,0l0,0C79.05,4,79.15,4.21,79.23,4.4ZM77.58,7.24a0,0,0,0,0,0,0c-.07.13-.13.27-.2.4L77,8.31a18.14,18.14,0,0,1-1.4,2.28A14.82,14.82,0,0,1,74,12.41l-.94.9a1.7,1.7,0,0,1-.34.26,1.85,1.85,0,0,0-.34.23,1.51,1.51,0,0,1-.71.34.79.79,0,0,1-.35,0c.07.12.24.14.52.07a1.29,1.29,0,0,0,.41-.16,7.49,7.49,0,0,0,2.11-1.7c.5-.56,1-1.15,1.42-1.75a11.38,11.38,0,0,0,.92-1.48,17.76,17.76,0,0,0,.85-1.76.14.14,0,0,0,0-.06Zm-5.82,4.87a5,5,0,0,0-.43,1.29l.13,0a1.7,1.7,0,0,0,.41-.15A7.7,7.7,0,0,0,74,11.51q.75-.84,1.41-1.74a11.46,11.46,0,0,0,.93-1.48c.31-.58.6-1.17.85-1.76.06-.16.12-.31.17-.47a5.71,5.71,0,0,0-2,1.12l-.13.08-.06,0a0,0,0,0,1,0,0l0,0,.08-.08s0,0,0,0h0l-.07,0-.14.1A6.09,6.09,0,0,0,74,8.4l-.29.39a10.93,10.93,0,0,0-.93,1.43,2.11,2.11,0,0,1-.18.27,2.2,2.2,0,0,0-.18.28c-.11.22-.22.45-.32.68S71.87,11.88,71.76,12.11Z"/></g></g></svg>